<svg width="14" height="18" viewBox="0 0 14 18" fill="none" xmlns="http://www.w3.org/2000/svg">
<path d="M2.60829 1.12077L3.17578 2.23453L2.60829 1.12077ZM0.787395 2.94167L1.90115 3.50915L0.787395 2.94167ZM0.787395 15.0583L-0.326364 15.6257L0.787395 15.0583ZM2.60829 16.8791L3.17578 15.7654L2.60829 16.8791ZM11.3915 16.8791L10.8241 15.7654L11.3915 16.8791ZM13.2124 15.0583L12.0987 14.4908L13.2124 15.0583ZM12.9453 4.92435L12.0614 5.80824L12.9453 4.92435ZM6.99992 1.91663C7.24292 1.91663 7.4715 1.91663 7.68825 1.91714L7.69409 -0.582859C7.47392 -0.583374 7.24234 -0.583373 6.99992 -0.583373V1.91663ZM3.17578 2.23453C3.41584 2.1122 3.74755 2.01969 4.36505 1.96924C4.99714 1.9176 5.8125 1.91663 6.99992 1.91663V-0.583373C5.85375 -0.583373 4.91898 -0.584346 4.16147 -0.522454C3.38937 -0.459371 2.69204 -0.324812 2.0408 0.00701016L3.17578 2.23453ZM1.90115 3.50915C2.18078 2.96035 2.62698 2.51415 3.17578 2.23453L2.0408 0.00701016C1.02159 0.526319 0.192945 1.35497 -0.326364 2.37418L1.90115 3.50915ZM1.58325 7.33329C1.58325 6.14589 1.58423 5.33052 1.63587 4.69843C1.68632 4.08093 1.77883 3.74922 1.90115 3.50915L-0.326364 2.37418C-0.658189 3.02541 -0.792747 3.72274 -0.85583 4.49484C-0.917722 5.25235 -0.916747 6.18714 -0.916747 7.33329H1.58325ZM1.58325 10.6666V7.33329H-0.916747V10.6666H1.58325ZM1.90115 14.4908C1.77883 14.2507 1.68632 13.919 1.63587 13.3015C1.58423 12.6694 1.58325 11.854 1.58325 10.6666H-0.916747C-0.916747 11.8128 -0.917722 12.7475 -0.85583 13.505C-0.792747 14.2772 -0.658189 14.9745 -0.326364 15.6257L1.90115 14.4908ZM3.17578 15.7654C2.62698 15.4858 2.18078 15.0395 1.90115 14.4908L-0.326364 15.6257C0.192945 16.645 1.02159 17.4736 2.0408 17.9929L3.17578 15.7654ZM6.99992 16.0833C5.8125 16.0833 4.99714 16.0823 4.36505 16.0307C3.74755 15.9802 3.41584 15.8877 3.17578 15.7654L2.0408 17.9929C2.69204 18.3247 3.38937 18.4593 4.16147 18.5224C4.91898 18.5843 5.85375 18.5833 6.99992 18.5833V16.0833ZM10.8241 15.7654C10.584 15.8877 10.2523 15.9802 9.63475 16.0307C9.00267 16.0823 8.18734 16.0833 6.99992 16.0833V18.5833C8.14609 18.5833 9.08084 18.5843 9.83834 18.5224C10.6105 18.4593 11.3078 18.3247 11.959 17.9929L10.8241 15.7654ZM12.0987 14.4908C11.8191 15.0395 11.3728 15.4858 10.8241 15.7654L11.959 17.9929C12.9783 17.4736 13.8069 16.645 14.3262 15.6257L12.0987 14.4908ZM12.4166 10.6666C12.4166 11.854 12.4156 12.6694 12.364 13.3015C12.3135 13.919 12.221 14.2507 12.0987 14.4908L14.3262 15.6257C14.658 14.9745 14.7926 14.2772 14.8557 13.505C14.9176 12.7475 14.9166 11.8128 14.9166 10.6666H12.4166ZM12.4166 7.33329V10.6666H14.9166V7.33329H12.4166ZM12.4161 6.64494C12.4166 6.86168 12.4166 7.09026 12.4166 7.33329H14.9166C14.9166 7.0909 14.9166 6.8593 14.9161 6.6391L12.4161 6.64494ZM13.8292 4.04046L10.2928 0.50406L8.525 2.27184L12.0614 5.80824L13.8292 4.04046ZM14.9161 6.6391C14.9138 5.65383 14.5128 4.72419 13.8292 4.04046L12.0614 5.80824C12.2908 6.03759 12.4153 6.33892 12.4161 6.64494L14.9161 6.6391ZM7.68825 1.91714C7.99434 1.91785 8.29559 2.04247 8.525 2.27184L10.2928 0.50406C9.609 -0.179661 8.67942 -0.580554 7.69409 -0.582859L7.68825 1.91714Z" fill="#2B5DA8"/>
</svg>
