<svg width="415" height="72" viewBox="0 0 415 72" fill="none" xmlns="http://www.w3.org/2000/svg">
<rect width="415" height="72" rx="10" fill="#004E8F"/>
<path d="M35.5813 34.5V32.2841L40.7589 27.4901C41.1992 27.0639 41.5685 26.6804 41.8668 26.3395C42.1699 25.9986 42.3995 25.6648 42.5558 25.3381C42.712 25.0066 42.7901 24.6491 42.7901 24.2656C42.7901 23.8395 42.6931 23.4725 42.4989 23.1648C42.3048 22.8523 42.0397 22.6132 41.7035 22.4474C41.3673 22.277 40.9862 22.1918 40.56 22.1918C40.1149 22.1918 39.7267 22.2817 39.3952 22.4616C39.0638 22.6416 38.8081 22.8996 38.6282 23.2358C38.4483 23.572 38.3583 23.9721 38.3583 24.4361H35.4393C35.4393 23.4844 35.6547 22.6581 36.0856 21.9574C36.5165 21.2566 37.1201 20.7145 37.8967 20.331C38.6732 19.9474 39.5681 19.7557 40.5813 19.7557C41.623 19.7557 42.5297 19.9403 43.3015 20.3097C44.078 20.6742 44.6817 21.1809 45.1126 21.8295C45.5434 22.4782 45.7589 23.2216 45.7589 24.0597C45.7589 24.6089 45.65 25.151 45.4322 25.6861C45.2191 26.2211 44.8379 26.8153 44.2887 27.4688C43.7395 28.1174 42.9653 28.8963 41.9663 29.8054L39.8427 31.8864V31.9858H45.9506V34.5H35.5813ZM48.179 34.5V32.2841L53.3565 27.4901C53.7969 27.0639 54.1662 26.6804 54.4645 26.3395C54.7675 25.9986 54.9972 25.6648 55.1534 25.3381C55.3097 25.0066 55.3878 24.6491 55.3878 24.2656C55.3878 23.8395 55.2907 23.4725 55.0966 23.1648C54.9025 22.8523 54.6373 22.6132 54.3011 22.4474C53.965 22.277 53.5838 22.1918 53.1577 22.1918C52.7126 22.1918 52.3243 22.2817 51.9929 22.4616C51.6615 22.6416 51.4058 22.8996 51.2259 23.2358C51.0459 23.572 50.956 23.9721 50.956 24.4361H48.0369C48.0369 23.4844 48.2524 22.6581 48.6832 21.9574C49.1141 21.2566 49.7178 20.7145 50.4943 20.331C51.2708 19.9474 52.1657 19.7557 53.179 19.7557C54.2206 19.7557 55.1274 19.9403 55.8991 20.3097C56.6757 20.6742 57.2794 21.1809 57.7102 21.8295C58.1411 22.4782 58.3565 23.2216 58.3565 24.0597C58.3565 24.6089 58.2476 25.151 58.0298 25.6861C57.8168 26.2211 57.4356 26.8153 56.8864 27.4688C56.3371 28.1174 55.563 28.8963 54.5639 29.8054L52.4403 31.8864V31.9858H58.5483V34.5H48.179Z" fill="white"/>
<path d="M28.2515 53.5V47.1314H26.422C25.9878 47.1314 25.6497 47.2325 25.4078 47.4347C25.1658 47.6368 25.0448 47.902 25.0448 48.2301C25.0448 48.5549 25.1559 48.8168 25.3779 49.0156C25.6033 49.2112 25.9182 49.3089 26.3225 49.3089H28.684V50.5121H26.3225C25.7591 50.5121 25.2719 50.4193 24.8609 50.2337C24.4532 50.0447 24.1383 49.7779 23.9163 49.4332C23.6975 49.0885 23.5882 48.6809 23.5882 48.2102C23.5882 47.7296 23.7008 47.3153 23.9262 46.9673C24.1549 46.616 24.4814 46.3442 24.9056 46.152C25.3332 45.9598 25.8386 45.8636 26.422 45.8636H29.6485V53.5H28.2515ZM23.2401 53.5L25.3928 49.642H26.9142L24.7615 53.5H23.2401ZM36.8026 49.0405V50.3281H32.6663V49.0405H36.8026ZM33.0839 45.8636V53.5H31.6272V45.8636H33.0839ZM37.8417 45.8636V53.5H36.39V45.8636H37.8417ZM39.8303 53.5V45.8636H42.9972C43.859 45.8636 44.5418 46.0476 45.0455 46.4155C45.5493 46.7801 45.8012 47.2756 45.8012 47.902C45.8012 48.3494 45.6587 48.7041 45.3737 48.9659C45.0886 49.2277 44.7108 49.4034 44.2401 49.4929C44.5815 49.5327 44.8947 49.6354 45.1798 49.8011C45.4648 49.9635 45.6935 50.1823 45.8659 50.4574C46.0415 50.7325 46.1294 51.0606 46.1294 51.4418C46.1294 51.8461 46.0249 52.2041 45.8161 52.5156C45.6073 52.8239 45.3041 53.0658 44.9063 53.2415C44.5119 53.4138 44.0363 53.5 43.4795 53.5H39.8303ZM41.2274 52.2571H43.4795C43.8474 52.2571 44.1357 52.1693 44.3445 51.9936C44.5534 51.8179 44.6578 51.5793 44.6578 51.2777C44.6578 50.9231 44.5534 50.6446 44.3445 50.4425C44.1357 50.237 43.8474 50.1342 43.4795 50.1342H41.2274V52.2571ZM41.2274 49.0455H43.0122C43.2906 49.0455 43.5292 49.0057 43.7281 48.9261C43.9302 48.8466 44.0844 48.7339 44.1904 48.5881C44.2998 48.4389 44.3545 48.2633 44.3545 48.0611C44.3545 47.7661 44.2335 47.5357 43.9916 47.37C43.7496 47.2043 43.4182 47.1214 42.9972 47.1214H41.2274V49.0455ZM49.9823 53.669C49.4984 53.669 49.0609 53.5795 48.6698 53.4006C48.2787 53.2183 47.9688 52.9548 47.7401 52.6101C47.5148 52.2654 47.4021 51.8428 47.4021 51.3423C47.4021 50.9115 47.4849 50.5568 47.6507 50.2784C47.8164 50 48.0401 49.7796 48.3218 49.6172C48.6035 49.4548 48.9184 49.3321 49.2664 49.2493C49.6144 49.1664 49.9691 49.1035 50.3303 49.0604C50.7877 49.0073 51.1589 48.9643 51.444 48.9311C51.729 48.8946 51.9362 48.8366 52.0654 48.7571C52.1947 48.6776 52.2593 48.5483 52.2593 48.3693V48.3345C52.2593 47.9003 52.1367 47.5639 51.8914 47.3253C51.6495 47.0866 51.2882 46.9673 50.8076 46.9673C50.3071 46.9673 49.9127 47.0784 49.6244 47.3004C49.3393 47.5192 49.1421 47.7628 49.0328 48.0312L47.6357 47.7131C47.8015 47.2491 48.0434 46.8745 48.3616 46.5895C48.6831 46.3011 49.0526 46.0923 49.4703 45.9631C49.8879 45.8305 50.327 45.7642 50.7877 45.7642C51.0927 45.7642 51.4158 45.8007 51.7572 45.8736C52.1019 45.9432 52.4234 46.0724 52.7217 46.2614C53.0233 46.4503 53.2702 46.7204 53.4624 47.0717C53.6547 47.4197 53.7508 47.8722 53.7508 48.429V53.5H52.2991V52.456H52.2394C52.1433 52.6482 51.9991 52.8371 51.8069 53.0227C51.6147 53.2083 51.3677 53.3625 51.0661 53.4851C50.7645 53.6077 50.4033 53.669 49.9823 53.669ZM50.3055 52.4759C50.7165 52.4759 51.0678 52.3946 51.3595 52.2322C51.6544 52.0698 51.8782 51.8577 52.0306 51.5959C52.1864 51.3307 52.2643 51.0473 52.2643 50.7457V49.7614C52.2113 49.8144 52.1085 49.8641 51.9561 49.9105C51.8069 49.9536 51.6362 49.9917 51.444 50.0249C51.2517 50.0547 51.0645 50.0829 50.8822 50.1094C50.6999 50.1326 50.5474 50.1525 50.4248 50.169C50.1365 50.2055 49.873 50.2668 49.6343 50.353C49.399 50.4392 49.2101 50.5634 49.0676 50.7259C48.9284 50.8849 48.8588 51.0971 48.8588 51.3622C48.8588 51.7301 48.9946 52.0085 49.2664 52.1974C49.5382 52.383 49.8846 52.4759 50.3055 52.4759ZM55.7307 56.3636V45.8636H57.1824V47.1016H57.3067C57.3929 46.9425 57.5172 46.7585 57.6796 46.5497C57.842 46.3409 58.0674 46.1586 58.3557 46.0028C58.6441 45.8438 59.0252 45.7642 59.4992 45.7642C60.1157 45.7642 60.6659 45.92 61.1498 46.2315C61.6337 46.5431 62.0132 46.9922 62.2883 47.5788C62.5667 48.1655 62.7059 48.8714 62.7059 49.6967C62.7059 50.522 62.5683 51.2296 62.2932 51.8196C62.0181 52.4062 61.6403 52.8587 61.1597 53.1768C60.6791 53.4917 60.1306 53.6491 59.5141 53.6491C59.0501 53.6491 58.6706 53.5713 58.3756 53.4155C58.084 53.2597 57.8553 53.0774 57.6895 52.8686C57.5238 52.6598 57.3962 52.4742 57.3067 52.3118H57.2172V56.3636H55.7307ZM57.1874 49.6818C57.1874 50.2187 57.2653 50.6894 57.4211 51.0938C57.5769 51.4981 57.8022 51.8146 58.0972 52.0433C58.3922 52.2687 58.7535 52.3814 59.181 52.3814C59.6251 52.3814 59.9964 52.2637 60.2947 52.0284C60.593 51.7898 60.8183 51.4666 60.9708 51.0589C61.1266 50.6513 61.2045 50.1922 61.2045 49.6818C61.2045 49.178 61.1282 48.7256 60.9758 48.3246C60.8266 47.9235 60.6012 47.607 60.2996 47.375C60.0013 47.143 59.6285 47.027 59.181 47.027C58.7501 47.027 58.3856 47.138 58.0873 47.3601C57.7923 47.5821 57.5686 47.892 57.4161 48.2898C57.2636 48.6875 57.1874 49.1515 57.1874 49.6818ZM68.9253 53.5V47.1314H67.0958C66.6616 47.1314 66.3235 47.2325 66.0816 47.4347C65.8396 47.6368 65.7187 47.902 65.7187 48.2301C65.7187 48.5549 65.8297 48.8168 66.0518 49.0156C66.2771 49.2112 66.592 49.3089 66.9964 49.3089H69.3579V50.5121H66.9964C66.4329 50.5121 65.9457 50.4193 65.5347 50.2337C65.127 50.0447 64.8122 49.7779 64.5901 49.4332C64.3714 49.0885 64.262 48.6809 64.262 48.2102C64.262 47.7296 64.3747 47.3153 64.6001 46.9673C64.8287 46.616 65.1552 46.3442 65.5795 46.152C66.007 45.9598 66.5125 45.8636 67.0958 45.8636H70.3224V53.5H68.9253ZM63.914 53.5L66.0667 49.642H67.588L65.4353 53.5H63.914Z" fill="white" fill-opacity="0.5"/>
<line x1="94.5" y1="14" x2="94.5" y2="58" stroke="white" stroke-opacity="0.3"/>
<path d="M115.849 21.0909V32H113.217V23.5518H113.153L110.714 25.0433V22.7635L113.404 21.0909H115.849ZM125.995 32.2663C125.043 32.2663 124.223 32.0408 123.534 31.5898C122.845 31.1353 122.314 30.4837 121.941 29.6349C121.568 28.7827 121.384 27.7582 121.387 26.5614C121.391 25.3647 121.577 24.3491 121.946 23.5146C122.319 22.6765 122.848 22.0391 123.534 21.6023C124.223 21.1619 125.043 20.9418 125.995 20.9418C126.946 20.9418 127.767 21.1619 128.456 21.6023C129.148 22.0391 129.681 22.6765 130.054 23.5146C130.427 24.3526 130.611 25.3683 130.608 26.5614C130.608 27.7617 130.421 28.788 130.048 29.6403C129.676 30.4925 129.145 31.1442 128.456 31.5952C127.77 32.0426 126.95 32.2663 125.995 32.2663ZM125.995 30.109C126.563 30.109 127.023 29.8196 127.374 29.2408C127.726 28.6584 127.9 27.7653 127.896 26.5614C127.896 25.7731 127.816 25.1232 127.657 24.6119C127.497 24.0969 127.275 23.7134 126.991 23.4613C126.707 23.2092 126.375 23.0831 125.995 23.0831C125.43 23.0831 124.974 23.369 124.626 23.9407C124.278 24.5089 124.102 25.3825 124.098 26.5614C124.095 27.3604 124.171 28.0227 124.328 28.5483C124.487 29.0739 124.711 29.4663 124.999 29.7255C125.286 29.9812 125.618 30.109 125.995 30.109ZM136.63 32.2663C135.678 32.2663 134.858 32.0408 134.169 31.5898C133.48 31.1353 132.949 30.4837 132.576 29.6349C132.203 28.7827 132.018 27.7582 132.022 26.5614C132.025 25.3647 132.212 24.3491 132.581 23.5146C132.954 22.6765 133.483 22.0391 134.169 21.6023C134.858 21.1619 135.678 20.9418 136.63 20.9418C137.581 20.9418 138.402 21.1619 139.09 21.6023C139.783 22.0391 140.316 22.6765 140.688 23.5146C141.061 24.3526 141.246 25.3683 141.242 26.5614C141.242 27.7617 141.056 28.788 140.683 29.6403C140.31 30.4925 139.779 31.1442 139.09 31.5952C138.405 32.0426 137.585 32.2663 136.63 32.2663ZM136.63 30.109C137.198 30.109 137.658 29.8196 138.009 29.2408C138.361 28.6584 138.535 27.7653 138.531 26.5614C138.531 25.7731 138.451 25.1232 138.291 24.6119C138.132 24.0969 137.91 23.7134 137.626 23.4613C137.342 23.2092 137.009 23.0831 136.63 23.0831C136.065 23.0831 135.609 23.369 135.261 23.9407C134.913 24.5089 134.737 25.3825 134.733 26.5614C134.73 27.3604 134.806 28.0227 134.962 28.5483C135.122 29.0739 135.346 29.4663 135.633 29.7255C135.921 29.9812 136.253 30.109 136.63 30.109ZM147.264 32.2663C146.313 32.2663 145.492 32.0408 144.803 31.5898C144.114 31.1353 143.584 30.4837 143.211 29.6349C142.838 28.7827 142.653 27.7582 142.657 26.5614C142.66 25.3647 142.847 24.3491 143.216 23.5146C143.589 22.6765 144.118 22.0391 144.803 21.6023C145.492 21.1619 146.313 20.9418 147.264 20.9418C148.216 20.9418 149.036 21.1619 149.725 21.6023C150.418 22.0391 150.95 22.6765 151.323 23.5146C151.696 24.3526 151.881 25.3683 151.877 26.5614C151.877 27.7617 151.691 28.788 151.318 29.6403C150.945 30.4925 150.414 31.1442 149.725 31.5952C149.04 32.0426 148.22 32.2663 147.264 32.2663ZM147.264 30.109C147.832 30.109 148.292 29.8196 148.644 29.2408C148.995 28.6584 149.169 27.7653 149.166 26.5614C149.166 25.7731 149.086 25.1232 148.926 24.6119C148.766 24.0969 148.544 23.7134 148.26 23.4613C147.976 23.2092 147.644 23.0831 147.264 23.0831C146.7 23.0831 146.243 23.369 145.895 23.9407C145.547 24.5089 145.372 25.3825 145.368 26.5614C145.364 27.3604 145.441 28.0227 145.597 28.5483C145.757 29.0739 145.981 29.4663 146.268 29.7255C146.556 29.9812 146.888 30.109 147.264 30.109ZM161.122 32.2663C160.17 32.2663 159.35 32.0408 158.661 31.5898C157.972 31.1353 157.441 30.4837 157.068 29.6349C156.695 28.7827 156.511 27.7582 156.514 26.5614C156.518 25.3647 156.704 24.3491 157.073 23.5146C157.446 22.6765 157.975 22.0391 158.661 21.6023C159.35 21.1619 160.17 20.9418 161.122 20.9418C162.073 20.9418 162.894 21.1619 163.583 21.6023C164.275 22.0391 164.808 22.6765 165.181 23.5146C165.554 24.3526 165.738 25.3683 165.735 26.5614C165.735 27.7617 165.548 28.788 165.175 29.6403C164.802 30.4925 164.272 31.1442 163.583 31.5952C162.897 32.0426 162.077 32.2663 161.122 32.2663ZM161.122 30.109C161.69 30.109 162.15 29.8196 162.501 29.2408C162.853 28.6584 163.027 27.7653 163.023 26.5614C163.023 25.7731 162.943 25.1232 162.784 24.6119C162.624 24.0969 162.402 23.7134 162.118 23.4613C161.834 23.2092 161.502 23.0831 161.122 23.0831C160.557 23.0831 160.101 23.369 159.753 23.9407C159.405 24.5089 159.229 25.3825 159.225 26.5614C159.222 27.3604 159.298 28.0227 159.454 28.5483C159.614 29.0739 159.838 29.4663 160.126 29.7255C160.413 29.9812 160.745 30.109 161.122 30.109ZM171.756 32.2663C170.805 32.2663 169.984 32.0408 169.296 31.5898C168.607 31.1353 168.076 30.4837 167.703 29.6349C167.33 28.7827 167.145 27.7582 167.149 26.5614C167.152 25.3647 167.339 24.3491 167.708 23.5146C168.081 22.6765 168.61 22.0391 169.296 21.6023C169.984 21.1619 170.805 20.9418 171.756 20.9418C172.708 20.9418 173.528 21.1619 174.217 21.6023C174.91 22.0391 175.443 22.6765 175.815 23.5146C176.188 24.3526 176.373 25.3683 176.369 26.5614C176.369 27.7617 176.183 28.788 175.81 29.6403C175.437 30.4925 174.906 31.1442 174.217 31.5952C173.532 32.0426 172.712 32.2663 171.756 32.2663ZM171.756 30.109C172.325 30.109 172.785 29.8196 173.136 29.2408C173.488 28.6584 173.662 27.7653 173.658 26.5614C173.658 25.7731 173.578 25.1232 173.418 24.6119C173.259 24.0969 173.037 23.7134 172.753 23.4613C172.468 23.2092 172.136 23.0831 171.756 23.0831C171.192 23.0831 170.736 23.369 170.388 23.9407C170.04 24.5089 169.864 25.3825 169.86 26.5614C169.857 27.3604 169.933 28.0227 170.089 28.5483C170.249 29.0739 170.473 29.4663 170.76 29.7255C171.048 29.9812 171.38 30.109 171.756 30.109ZM182.391 32.2663C181.44 32.2663 180.619 32.0408 179.93 31.5898C179.241 31.1353 178.71 30.4837 178.338 29.6349C177.965 28.7827 177.78 27.7582 177.784 26.5614C177.787 25.3647 177.974 24.3491 178.343 23.5146C178.716 22.6765 179.245 22.0391 179.93 21.6023C180.619 21.1619 181.44 20.9418 182.391 20.9418C183.343 20.9418 184.163 21.1619 184.852 21.6023C185.545 22.0391 186.077 22.6765 186.45 23.5146C186.823 24.3526 187.008 25.3683 187.004 26.5614C187.004 27.7617 186.818 28.788 186.445 29.6403C186.072 30.4925 185.541 31.1442 184.852 31.5952C184.167 32.0426 183.347 32.2663 182.391 32.2663ZM182.391 30.109C182.959 30.109 183.419 29.8196 183.771 29.2408C184.122 28.6584 184.296 27.7653 184.293 26.5614C184.293 25.7731 184.213 25.1232 184.053 24.6119C183.893 24.0969 183.671 23.7134 183.387 23.4613C183.103 23.2092 182.771 23.0831 182.391 23.0831C181.827 23.0831 181.37 23.369 181.022 23.9407C180.674 24.5089 180.498 25.3825 180.495 26.5614C180.491 27.3604 180.568 28.0227 180.724 28.5483C180.884 29.0739 181.108 29.4663 181.395 29.7255C181.683 29.9812 182.015 30.109 182.391 30.109ZM197.293 24.0419V32H194.677V24.0419H197.293ZM200.638 24.0419V26.1513H191.417V24.0419H200.638ZM200.638 21.0909V23.2003H191.417V21.0909H200.638ZM204.597 30.5085L204.549 31.0998C204.506 31.5898 204.419 32.0675 204.288 32.5327C204.16 33.0014 204.023 33.4222 203.878 33.7951C203.732 34.168 203.617 34.4574 203.532 34.6634H201.891C201.948 34.4574 202.024 34.168 202.12 33.7951C202.219 33.4222 202.312 33.0014 202.397 32.5327C202.482 32.0639 202.53 31.5881 202.541 31.1051L202.551 30.5085H204.597ZM209.131 32V23.8182H211.736V32H209.131ZM210.436 22.8647C210.071 22.8647 209.756 22.744 209.494 22.5025C209.231 22.2575 209.099 21.9627 209.099 21.6183C209.099 21.2773 209.231 20.9862 209.494 20.7447C209.756 20.4996 210.071 20.3771 210.436 20.3771C210.806 20.3771 211.12 20.4996 211.379 20.7447C211.642 20.9862 211.773 21.2773 211.773 21.6183C211.773 21.9627 211.642 22.2575 211.379 22.5025C211.12 22.744 210.806 22.8647 210.436 22.8647ZM213.394 32V21.0909H217.9C218.717 21.0909 219.422 21.2507 220.015 21.5703C220.612 21.8864 221.072 22.3285 221.395 22.8967C221.718 23.4613 221.879 24.1183 221.879 24.8675C221.879 25.6204 221.714 26.2791 221.384 26.8438C221.057 27.4048 220.59 27.8398 219.983 28.1488C219.376 28.4577 218.655 28.6122 217.82 28.6122H215.04V26.5348H217.33C217.728 26.5348 218.06 26.4656 218.327 26.3271C218.596 26.1886 218.801 25.995 218.939 25.7464C219.078 25.4943 219.147 25.2013 219.147 24.8675C219.147 24.5302 219.078 24.239 218.939 23.994C218.801 23.7454 218.596 23.5536 218.327 23.4187C218.057 23.2837 217.725 23.2163 217.33 23.2163H216.031V32H213.394ZM225.784 27.3338V32H223.179V21.0909H225.699V25.3203H225.789C225.974 24.8161 226.276 24.4219 226.695 24.1378C227.117 23.8537 227.634 23.7116 228.245 23.7116C228.82 23.7116 229.321 23.8395 229.747 24.0952C230.173 24.3473 230.503 24.7042 230.738 25.1658C230.976 25.6275 231.093 26.1673 231.089 26.7852V32H228.485V27.2965C228.488 26.842 228.374 26.4869 228.144 26.2312C227.913 25.9755 227.588 25.8477 227.169 25.8477C226.895 25.8477 226.654 25.908 226.444 26.0288C226.238 26.146 226.077 26.3146 225.96 26.5348C225.846 26.755 225.787 27.0213 225.784 27.3338ZM236.535 32.1545C235.675 32.1545 234.937 31.9787 234.319 31.6271C233.704 31.272 233.23 30.7784 232.896 30.1463C232.566 29.5107 232.401 28.7738 232.401 27.9357C232.401 27.0941 232.566 26.3572 232.896 25.7251C233.23 25.0895 233.704 24.5959 234.319 24.2443C234.937 23.8892 235.675 23.7116 236.535 23.7116C237.394 23.7116 238.131 23.8892 238.745 24.2443C239.363 24.5959 239.837 25.0895 240.167 25.7251C240.501 26.3572 240.668 27.0941 240.668 27.9357C240.668 28.7738 240.501 29.5107 240.167 30.1463C239.837 30.7784 239.363 31.272 238.745 31.6271C238.131 31.9787 237.394 32.1545 236.535 32.1545ZM236.551 30.1889C236.863 30.1889 237.128 30.093 237.344 29.9013C237.561 29.7095 237.726 29.4432 237.84 29.1023C237.957 28.7614 238.015 28.3672 238.015 27.9197C238.015 27.4652 237.957 27.0675 237.84 26.7266C237.726 26.3857 237.561 26.1193 237.344 25.9276C237.128 25.7358 236.863 25.6399 236.551 25.6399C236.227 25.6399 235.954 25.7358 235.73 25.9276C235.51 26.1193 235.341 26.3857 235.224 26.7266C235.111 27.0675 235.054 27.4652 235.054 27.9197C235.054 28.3672 235.111 28.7614 235.224 29.1023C235.341 29.4432 235.51 29.7095 235.73 29.9013C235.954 30.093 236.227 30.1889 236.551 30.1889ZM244.607 27.3338V32H242.002V23.8182H244.479V25.3203H244.57C244.751 24.8196 245.06 24.4272 245.497 24.1431C245.934 23.8555 246.454 23.7116 247.057 23.7116C247.633 23.7116 248.132 23.8413 248.554 24.1005C248.98 24.3562 249.311 24.7148 249.545 25.1765C249.783 25.6346 249.9 26.1708 249.897 26.7852V32H247.292V27.2965C247.295 26.842 247.18 26.4869 246.946 26.2312C246.715 25.9755 246.393 25.8477 245.981 25.8477C245.708 25.8477 245.467 25.908 245.257 26.0288C245.051 26.146 244.891 26.3146 244.778 26.5348C244.668 26.755 244.611 27.0213 244.607 27.3338ZM255.334 32.1545C254.478 32.1545 253.739 31.9858 253.118 31.6484C252.5 31.3075 252.024 30.8228 251.69 30.1942C251.36 29.5621 251.195 28.8111 251.195 27.9411C251.195 27.0959 251.362 26.3572 251.696 25.7251C252.029 25.0895 252.5 24.5959 253.107 24.2443C253.714 23.8892 254.43 23.7116 255.254 23.7116C255.836 23.7116 256.369 23.8022 256.852 23.9833C257.335 24.1644 257.752 24.4325 258.104 24.7876C258.455 25.1428 258.729 25.5813 258.924 26.1033C259.119 26.6218 259.217 27.2166 259.217 27.8878V28.5376H252.106V27.0249H256.793C256.79 26.7479 256.724 26.5011 256.596 26.2844C256.468 26.0678 256.293 25.8991 256.069 25.7784C255.849 25.6541 255.595 25.592 255.307 25.592C255.016 25.592 254.755 25.6577 254.524 25.7891C254.293 25.9169 254.11 26.0927 253.975 26.3164C253.841 26.5366 253.77 26.7869 253.762 27.0675V28.6069C253.762 28.9407 253.828 29.2337 253.96 29.4858C254.091 29.7344 254.277 29.9279 254.519 30.0664C254.76 30.2049 255.048 30.2741 255.382 30.2741C255.613 30.2741 255.822 30.2422 256.01 30.1783C256.199 30.1143 256.36 30.0202 256.495 29.896C256.63 29.7717 256.731 29.619 256.799 29.4379L259.19 29.5071C259.091 30.0433 258.873 30.5103 258.535 30.908C258.201 31.3022 257.763 31.6094 257.219 31.8295C256.676 32.0462 256.048 32.1545 255.334 32.1545ZM268.793 21.0909V32H266.162V23.5518H266.098L263.658 25.0433V22.7635L266.348 21.0909H268.793ZM271.072 30.1889V28.1328L275.541 21.0909H277.368V23.8821H276.308L273.692 28.0263V28.1115H280.164V30.1889H271.072ZM276.34 32V29.5604L276.393 28.6602V21.0909H278.859V32H276.34ZM112.408 48.1463L116.349 41.8182H117.798V50H116.541V43.6719L112.621 50H111.151V41.8182H112.408V48.1463ZM128.149 50.1491C127.354 50.1491 126.647 50.0053 126.029 49.7177C125.411 49.43 124.923 49.0341 124.565 48.5298C124.209 48.0256 124.025 47.4467 124.011 46.7933H126.567C126.589 47.1946 126.752 47.5178 127.057 47.7628C127.363 48.0043 127.727 48.125 128.149 48.125C128.48 48.125 128.773 48.0522 129.028 47.9066C129.284 47.761 129.485 47.5568 129.63 47.294C129.776 47.0277 129.847 46.7223 129.843 46.3778C129.847 46.0263 129.774 45.7191 129.625 45.4563C129.479 45.1935 129.277 44.9893 129.018 44.8438C128.762 44.6946 128.467 44.62 128.133 44.62C127.817 44.6165 127.517 44.6857 127.233 44.8278C126.953 44.9698 126.74 45.1634 126.594 45.4084L124.266 44.9716L124.74 39.0909H131.74V41.2163H126.908L126.658 43.7891H126.722C126.903 43.4872 127.194 43.2386 127.595 43.0433C128 42.8445 128.46 42.745 128.975 42.745C129.628 42.745 130.211 42.8977 130.722 43.2031C131.237 43.505 131.642 43.924 131.937 44.4602C132.235 44.9964 132.384 45.6108 132.384 46.3033C132.384 47.0526 132.207 47.7166 131.851 48.2955C131.5 48.8743 131.006 49.3288 130.371 49.6591C129.739 49.9858 128.998 50.1491 128.149 50.1491ZM138.397 50V41.8182H144.831V50H143.574V42.9901H139.654V50H138.397ZM147.127 53.0682V41.8182H148.342V43.1179H148.491C148.583 42.9759 148.711 42.7947 148.874 42.5746C149.041 42.3509 149.279 42.152 149.588 41.978C149.901 41.8004 150.323 41.7116 150.856 41.7116C151.545 41.7116 152.152 41.8839 152.678 42.2283C153.203 42.5728 153.613 43.0611 153.908 43.6932C154.203 44.3253 154.35 45.071 154.35 45.9304C154.35 46.7969 154.203 47.5479 153.908 48.1836C153.613 48.8157 153.205 49.3058 152.683 49.6538C152.161 49.9982 151.559 50.1705 150.877 50.1705C150.352 50.1705 149.931 50.0835 149.615 49.9094C149.299 49.7319 149.055 49.5312 148.885 49.3075C148.714 49.0803 148.583 48.892 148.491 48.7429H148.384V53.0682H147.127ZM148.363 45.9091C148.363 46.527 148.453 47.0721 148.635 47.5444C148.816 48.0131 149.08 48.3807 149.428 48.647C149.776 48.9098 150.202 49.0412 150.707 49.0412C151.232 49.0412 151.671 48.9027 152.022 48.6257C152.377 48.3452 152.644 47.9687 152.821 47.4964C153.002 47.0206 153.093 46.4915 153.093 45.9091C153.093 45.3338 153.004 44.8153 152.827 44.3537C152.653 43.8885 152.388 43.521 152.033 43.2511C151.681 42.9776 151.239 42.8409 150.707 42.8409C150.195 42.8409 149.766 42.9705 149.418 43.2298C149.07 43.4854 148.807 43.8441 148.629 44.3058C148.452 44.7638 148.363 45.2983 148.363 45.9091ZM157.525 48.1463L161.467 41.8182H162.915V50H161.658V43.6719L157.738 50H156.268V41.8182H157.525V48.1463ZM164.707 47.9119H166.049C166.077 48.2812 166.244 48.5618 166.55 48.7536C166.859 48.9453 167.26 49.0412 167.753 49.0412C168.258 49.0412 168.689 48.9382 169.048 48.7322C169.407 48.5227 169.586 48.1854 169.586 47.7202C169.586 47.4467 169.518 47.2088 169.383 47.0064C169.248 46.8004 169.059 46.6406 168.813 46.527C168.568 46.4134 168.279 46.3565 167.945 46.3565H166.539V45.2273H167.945C168.446 45.2273 168.815 45.1136 169.053 44.8864C169.295 44.6591 169.415 44.375 169.415 44.0341C169.415 43.6683 169.286 43.3754 169.027 43.1552C168.767 42.9315 168.4 42.8196 167.924 42.8196C167.445 42.8196 167.045 42.9279 166.725 43.1445C166.406 43.3576 166.237 43.6328 166.219 43.9702H164.898C164.913 43.5298 165.047 43.141 165.303 42.8036C165.559 42.4627 165.907 42.1964 166.347 42.0046C166.788 41.8093 167.292 41.7116 167.86 41.7116C168.435 41.7116 168.934 41.8129 169.357 42.0153C169.783 42.2141 170.111 42.4858 170.342 42.8303C170.577 43.1712 170.694 43.5582 170.694 43.9915C170.694 44.4531 170.564 44.826 170.305 45.1101C170.046 45.3942 169.721 45.5966 169.33 45.7173V45.8026C169.639 45.8239 169.907 45.9233 170.134 46.1009C170.365 46.2749 170.545 46.5039 170.672 46.788C170.8 47.0685 170.864 47.3793 170.864 47.7202C170.864 48.2173 170.731 48.6506 170.465 49.0199C170.198 49.3857 169.833 49.6697 169.367 49.8722C168.902 50.071 168.371 50.1705 167.775 50.1705C167.196 50.1705 166.677 50.0763 166.219 49.8881C165.761 49.6964 165.397 49.4318 165.127 49.0945C164.861 48.7536 164.721 48.3594 164.707 47.9119ZM175.954 50.1705C175.215 50.1705 174.567 49.9947 174.01 49.6431C173.456 49.2915 173.022 48.7997 172.71 48.1676C172.401 47.5355 172.247 46.7969 172.247 45.9517C172.247 45.0994 172.401 44.3555 172.71 43.7198C173.022 43.0842 173.456 42.5906 174.01 42.239C174.567 41.8874 175.215 41.7116 175.954 41.7116C176.693 41.7116 177.339 41.8874 177.893 42.239C178.45 42.5906 178.884 43.0842 179.193 43.7198C179.505 44.3555 179.661 45.0994 179.661 45.9517C179.661 46.7969 179.505 47.5355 179.193 48.1676C178.884 48.7997 178.45 49.2915 177.893 49.6431C177.339 49.9947 176.693 50.1705 175.954 50.1705ZM175.954 49.0412C176.515 49.0412 176.977 48.8974 177.339 48.6097C177.701 48.3221 177.969 47.9439 178.143 47.4751C178.317 47.0064 178.404 46.4986 178.404 45.9517C178.404 45.4048 178.317 44.8952 178.143 44.4229C177.969 43.9506 177.701 43.5689 177.339 43.2777C176.977 42.9865 176.515 42.8409 175.954 42.8409C175.393 42.8409 174.931 42.9865 174.569 43.2777C174.207 43.5689 173.939 43.9506 173.765 44.4229C173.591 44.8952 173.504 45.4048 173.504 45.9517C173.504 46.4986 173.591 47.0064 173.765 47.4751C173.939 47.9439 174.207 48.3221 174.569 48.6097C174.931 48.8974 175.393 49.0412 175.954 49.0412ZM181.58 50V41.8182H184.925C185.806 41.8182 186.506 42.017 187.024 42.4148C187.543 42.8125 187.802 43.3381 187.802 43.9915C187.802 44.4886 187.654 44.8739 187.36 45.1474C187.065 45.4173 186.687 45.6001 186.225 45.696C186.527 45.7386 186.82 45.8452 187.104 46.0156C187.392 46.1861 187.63 46.4205 187.818 46.7188C188.006 47.0135 188.1 47.3757 188.1 47.8054C188.1 48.2244 187.994 48.5991 187.781 48.9293C187.567 49.2596 187.262 49.5206 186.864 49.7124C186.467 49.9041 185.991 50 185.437 50H181.58ZM182.773 48.8494H185.437C185.87 48.8494 186.209 48.7464 186.454 48.5405C186.699 48.3345 186.822 48.054 186.822 47.6989C186.822 47.2763 186.699 46.9442 186.454 46.7028C186.209 46.4577 185.87 46.3352 185.437 46.3352H182.773V48.8494ZM182.773 45.2486H184.925C185.263 45.2486 185.552 45.2024 185.794 45.1101C186.035 45.0142 186.22 44.8793 186.348 44.7053C186.479 44.5277 186.545 44.3182 186.545 44.0767C186.545 43.7322 186.401 43.4624 186.113 43.267C185.826 43.0682 185.43 42.9688 184.925 42.9688H182.773V45.2486ZM194.222 50V41.8182H200.657V50H199.399V42.9901H195.479V50H194.222ZM206.276 50.1705C205.538 50.1705 204.889 49.9947 204.332 49.6431C203.778 49.2915 203.345 48.7997 203.032 48.1676C202.723 47.5355 202.569 46.7969 202.569 45.9517C202.569 45.0994 202.723 44.3555 203.032 43.7198C203.345 43.0842 203.778 42.5906 204.332 42.239C204.889 41.8874 205.538 41.7116 206.276 41.7116C207.015 41.7116 207.661 41.8874 208.215 42.239C208.773 42.5906 209.206 43.0842 209.515 43.7198C209.827 44.3555 209.984 45.0994 209.984 45.9517C209.984 46.7969 209.827 47.5355 209.515 48.1676C209.206 48.7997 208.773 49.2915 208.215 49.6431C207.661 49.9947 207.015 50.1705 206.276 50.1705ZM206.276 49.0412C206.837 49.0412 207.299 48.8974 207.661 48.6097C208.023 48.3221 208.291 47.9439 208.465 47.4751C208.639 47.0064 208.726 46.4986 208.726 45.9517C208.726 45.4048 208.639 44.8952 208.465 44.4229C208.291 43.9506 208.023 43.5689 207.661 43.2777C207.299 42.9865 206.837 42.8409 206.276 42.8409C205.715 42.8409 205.253 42.9865 204.891 43.2777C204.529 43.5689 204.261 43.9506 204.087 44.4229C203.913 44.8952 203.826 45.4048 203.826 45.9517C203.826 46.4986 203.913 47.0064 204.087 47.4751C204.261 47.9439 204.529 48.3221 204.891 48.6097C205.253 48.8974 205.715 49.0412 206.276 49.0412ZM219.951 50.1491C219.156 50.1491 218.449 50.0053 217.831 49.7177C217.213 49.43 216.725 49.0341 216.366 48.5298C216.011 48.0256 215.827 47.4467 215.812 46.7933H218.369C218.39 47.1946 218.554 47.5178 218.859 47.7628C219.165 48.0043 219.529 48.125 219.951 48.125C220.281 48.125 220.574 48.0522 220.83 47.9066C221.086 47.761 221.286 47.5568 221.432 47.294C221.578 47.0277 221.649 46.7223 221.645 46.3778C221.649 46.0263 221.576 45.7191 221.427 45.4563C221.281 45.1935 221.079 44.9893 220.819 44.8438C220.564 44.6946 220.269 44.62 219.935 44.62C219.619 44.6165 219.319 44.6857 219.035 44.8278C218.754 44.9698 218.541 45.1634 218.396 45.4084L216.068 44.9716L216.542 39.0909H223.541V41.2163H218.71L218.46 43.7891H218.524C218.705 43.4872 218.996 43.2386 219.397 43.0433C219.802 42.8445 220.262 42.745 220.777 42.745C221.43 42.745 222.013 42.8977 222.524 43.2031C223.039 43.505 223.444 43.924 223.738 44.4602C224.037 44.9964 224.186 45.6108 224.186 46.3033C224.186 47.0526 224.008 47.7166 223.653 48.2955C223.302 48.8743 222.808 49.3288 222.172 49.6591C221.54 49.9858 220.8 50.1491 219.951 50.1491ZM230.145 50.2663C229.193 50.2663 228.373 50.0408 227.684 49.5898C226.995 49.1353 226.464 48.4837 226.092 47.6349C225.719 46.7827 225.534 45.7582 225.538 44.5614C225.541 43.3647 225.728 42.3491 226.097 41.5146C226.47 40.6765 226.999 40.0391 227.684 39.6023C228.373 39.1619 229.193 38.9418 230.145 38.9418C231.097 38.9418 231.917 39.1619 232.606 39.6023C233.299 40.0391 233.831 40.6765 234.204 41.5146C234.577 42.3526 234.762 43.3683 234.758 44.5614C234.758 45.7617 234.572 46.788 234.199 47.6403C233.826 48.4925 233.295 49.1442 232.606 49.5952C231.921 50.0426 231.1 50.2663 230.145 50.2663ZM230.145 48.109C230.713 48.109 231.173 47.8196 231.525 47.2408C231.876 46.6584 232.05 45.7653 232.047 44.5614C232.047 43.7731 231.967 43.1232 231.807 42.6119C231.647 42.0969 231.425 41.7134 231.141 41.4613C230.857 41.2092 230.525 41.0831 230.145 41.0831C229.581 41.0831 229.124 41.369 228.776 41.9407C228.428 42.5089 228.252 43.3825 228.249 44.5614C228.245 45.3604 228.322 46.0227 228.478 46.5483C228.638 47.0739 228.861 47.4663 229.149 47.7255C229.437 47.9812 229.769 48.109 230.145 48.109ZM244.003 50.2663C243.051 50.2663 242.231 50.0408 241.542 49.5898C240.853 49.1353 240.322 48.4837 239.949 47.6349C239.576 46.7827 239.391 45.7582 239.395 44.5614C239.399 43.3647 239.585 42.3491 239.954 41.5146C240.327 40.6765 240.856 40.0391 241.542 39.6023C242.231 39.1619 243.051 38.9418 244.003 38.9418C244.954 38.9418 245.775 39.1619 246.464 39.6023C247.156 40.0391 247.689 40.6765 248.062 41.5146C248.434 42.3526 248.619 43.3683 248.616 44.5614C248.616 45.7617 248.429 46.788 248.056 47.6403C247.683 48.4925 247.152 49.1442 246.464 49.5952C245.778 50.0426 244.958 50.2663 244.003 50.2663ZM244.003 48.109C244.571 48.109 245.031 47.8196 245.382 47.2408C245.734 46.6584 245.908 45.7653 245.904 44.5614C245.904 43.7731 245.824 43.1232 245.665 42.6119C245.505 42.0969 245.283 41.7134 244.999 41.4613C244.715 41.2092 244.383 41.0831 244.003 41.0831C243.438 41.0831 242.982 41.369 242.634 41.9407C242.286 42.5089 242.11 43.3825 242.106 44.5614C242.103 45.3604 242.179 46.0227 242.335 46.5483C242.495 47.0739 242.719 47.4663 243.006 47.7255C243.294 47.9812 243.626 48.109 244.003 48.109ZM254.637 50.2663C253.686 50.2663 252.865 50.0408 252.176 49.5898C251.487 49.1353 250.957 48.4837 250.584 47.6349C250.211 46.7827 250.026 45.7582 250.03 44.5614C250.033 43.3647 250.22 42.3491 250.589 41.5146C250.962 40.6765 251.491 40.0391 252.176 39.6023C252.865 39.1619 253.686 38.9418 254.637 38.9418C255.589 38.9418 256.409 39.1619 257.098 39.6023C257.791 40.0391 258.323 40.6765 258.696 41.5146C259.069 42.3526 259.254 43.3683 259.25 44.5614C259.25 45.7617 259.064 46.788 258.691 47.6403C258.318 48.4925 257.787 49.1442 257.098 49.5952C256.413 50.0426 255.593 50.2663 254.637 50.2663ZM254.637 48.109C255.206 48.109 255.665 47.8196 256.017 47.2408C256.369 46.6584 256.543 45.7653 256.539 44.5614C256.539 43.7731 256.459 43.1232 256.299 42.6119C256.139 42.0969 255.918 41.7134 255.633 41.4613C255.349 41.2092 255.017 41.0831 254.637 41.0831C254.073 41.0831 253.616 41.369 253.268 41.9407C252.92 42.5089 252.745 43.3825 252.741 44.5614C252.737 45.3604 252.814 46.0227 252.97 46.5483C253.13 47.0739 253.354 47.4663 253.641 47.7255C253.929 47.9812 254.261 48.109 254.637 48.109ZM265.272 50.2663C264.32 50.2663 263.5 50.0408 262.811 49.5898C262.122 49.1353 261.591 48.4837 261.218 47.6349C260.846 46.7827 260.661 45.7582 260.665 44.5614C260.668 43.3647 260.854 42.3491 261.224 41.5146C261.597 40.6765 262.126 40.0391 262.811 39.6023C263.5 39.1619 264.32 38.9418 265.272 38.9418C266.224 38.9418 267.044 39.1619 267.733 39.6023C268.426 40.0391 268.958 40.6765 269.331 41.5146C269.704 42.3526 269.889 43.3683 269.885 44.5614C269.885 45.7617 269.699 46.788 269.326 47.6403C268.953 48.4925 268.422 49.1442 267.733 49.5952C267.048 50.0426 266.227 50.2663 265.272 50.2663ZM265.272 48.109C265.84 48.109 266.3 47.8196 266.652 47.2408C267.003 46.6584 267.177 45.7653 267.174 44.5614C267.174 43.7731 267.094 43.1232 266.934 42.6119C266.774 42.0969 266.552 41.7134 266.268 41.4613C265.984 41.2092 265.652 41.0831 265.272 41.0831C264.707 41.0831 264.251 41.369 263.903 41.9407C263.555 42.5089 263.379 43.3825 263.376 44.5614C263.372 45.3604 263.449 46.0227 263.605 46.5483C263.765 47.0739 263.988 47.4663 264.276 47.7255C264.564 47.9812 264.896 48.109 265.272 48.109ZM280.174 42.0419V50H277.558V42.0419H280.174ZM283.519 42.0419V44.1513H274.298V42.0419H283.519ZM283.519 39.0909V41.2003H274.298V39.0909H283.519Z" fill="white"/>
<path d="M383.081 34.2754L376.024 41.3326L374.138 39.447L383.081 30.5042L392.024 39.447L390.138 41.3326L383.081 34.2754Z" fill="white"/>
</svg>
