<svg width="20" height="20" viewBox="0 0 20 20" fill="none" xmlns="http://www.w3.org/2000/svg">
<path d="M14.1624 3.33331H5.82911C2.63744 3.33331 1.74578 4.09998 1.67078 7.08331C3.27911 7.08331 4.57911 8.39165 4.57911 9.99998C4.57911 11.6083 3.27911 12.9083 1.67078 12.9166C1.74578 15.9 2.63744 16.6666 5.82911 16.6666H14.1624C17.4958 16.6666 18.3291 15.8333 18.3291 12.5V7.49998C18.3291 4.16665 17.4958 3.33331 14.1624 3.33331Z" stroke="white" stroke-width="1.5" stroke-linecap="round" stroke-linejoin="round"/>
<path d="M7.49438 3.33331V6.24998" stroke="white" stroke-width="1.5" stroke-linecap="round" stroke-linejoin="round"/>
<path d="M7.49438 13.75V16.6667" stroke="white" stroke-width="1.5" stroke-linecap="round" stroke-linejoin="round"/>
<path d="M12.5209 7.77499L13.0376 8.81665C13.0876 8.91665 13.1876 8.99165 13.2959 9.00832L14.4459 9.17499C14.7292 9.21665 14.8459 9.56665 14.6376 9.76665L13.8042 10.575C13.7209 10.65 13.6876 10.7667 13.7042 10.8833L13.9042 12.025C13.9542 12.3083 13.6542 12.525 13.4042 12.3917L12.3792 11.85C12.2792 11.8 12.1542 11.8 12.0542 11.85L11.0292 12.3917C10.7709 12.525 10.4792 12.3083 10.5292 12.025L10.7292 10.8833C10.7459 10.7667 10.7126 10.6583 10.6292 10.575L9.80422 9.76665C9.59589 9.56665 9.71255 9.21665 9.99589 9.17499L11.1459 9.00832C11.2626 8.99165 11.3542 8.92499 11.4042 8.81665L11.9126 7.77499C12.0292 7.51665 12.3959 7.51665 12.5209 7.77499Z" stroke="white" stroke-width="1.5" stroke-linecap="round" stroke-linejoin="round"/>
</svg>
